<mxfile host="drawio-plugin" modified="2022-07-30T01:31:56.344Z" agent="5.0 (Windows NT 6.2; Win64; x64) AppleWebKit/537.36 (KHTML, like Gecko) Chrome/97.0.4692.45 Safari/537.36" etag="c2xaUMCIJWhx6utvIiCu" version="15.5.4" type="embed" pages="3"><diagram id="OiKTbDm5P2jncPTnv-MS" name="Clock_Queue"><mxGraphModel dx="982" dy="528" grid="1" gridSize="10" guides="1" tooltips="1" connect="1" arrows="1" fold="1" page="1" pageScale="1" pageWidth="850" pageHeight="700" background="#ffffff" math="0" shadow="0"><root><mxCell id="0"/><mxCell id="1" parent="0"/><mxCell id="hrj-naIFJMOV-cHhLQjX-5" value="" style="edgeStyle=orthogonalEdgeStyle;rounded=0;orthogonalLoop=1;jettySize=auto;html=1;strokeColor=#000000;" parent="1" source="hrj-naIFJMOV-cHhLQjX-1" target="hrj-naIFJMOV-cHhLQjX-4" edge="1"><mxGeometry relative="1" as="geometry"/></mxCell><mxCell id="hrj-naIFJMOV-cHhLQjX-6" value="&lt;font style=&quot;font-size: 16px&quot;&gt;Use&lt;/font&gt;" style="edgeLabel;html=1;align=center;verticalAlign=middle;resizable=0;points=[];" parent="hrj-naIFJMOV-cHhLQjX-5" vertex="1" connectable="0"><mxGeometry x="0.3048" y="4" relative="1" as="geometry"><mxPoint as="offset"/></mxGeometry></mxCell><mxCell id="hrj-naIFJMOV-cHhLQjX-8" value="" style="edgeStyle=orthogonalEdgeStyle;rounded=0;orthogonalLoop=1;jettySize=auto;html=1;fontSize=16;entryX=0;entryY=0.5;entryDx=0;entryDy=0;exitX=0.5;exitY=0;exitDx=0;exitDy=0;strokeColor=#000000;" parent="1" source="hrj-naIFJMOV-cHhLQjX-1" target="hrj-naIFJMOV-cHhLQjX-3" edge="1"><mxGeometry relative="1" as="geometry"><mxPoint x="205" y="85" as="targetPoint"/></mxGeometry></mxCell><mxCell id="hrj-naIFJMOV-cHhLQjX-9" value="Supply" style="edgeLabel;html=1;align=center;verticalAlign=middle;resizable=0;points=[];fontSize=16;" parent="hrj-naIFJMOV-cHhLQjX-8" vertex="1" connectable="0"><mxGeometry x="0.14" y="-1" relative="1" as="geometry"><mxPoint as="offset"/></mxGeometry></mxCell><mxCell id="hrj-naIFJMOV-cHhLQjX-1" value="ClockQueue" style="html=1;fontSize=13;" parent="1" vertex="1"><mxGeometry x="150" y="160" width="110" height="50" as="geometry"/></mxCell><mxCell id="hrj-naIFJMOV-cHhLQjX-11" value="" style="edgeStyle=orthogonalEdgeStyle;rounded=0;orthogonalLoop=1;jettySize=auto;html=1;fontSize=16;strokeColor=#000000;" parent="1" source="hrj-naIFJMOV-cHhLQjX-2" target="hrj-naIFJMOV-cHhLQjX-10" edge="1"><mxGeometry relative="1" as="geometry"><Array as="points"><mxPoint x="95" y="330"/><mxPoint x="95" y="330"/></Array></mxGeometry></mxCell><mxCell id="hrj-naIFJMOV-cHhLQjX-12" value="Use" style="edgeLabel;html=1;align=center;verticalAlign=middle;resizable=0;points=[];fontSize=16;" parent="hrj-naIFJMOV-cHhLQjX-11" vertex="1" connectable="0"><mxGeometry x="-0.25" y="-1" relative="1" as="geometry"><mxPoint as="offset"/></mxGeometry></mxCell><mxCell id="hrj-naIFJMOV-cHhLQjX-2" value="ArrayList" style="html=1;fontSize=13;" parent="1" vertex="1"><mxGeometry x="40" y="250" width="110" height="50" as="geometry"/></mxCell><mxCell id="hrj-naIFJMOV-cHhLQjX-4" value="" style="shape=waypoint;sketch=0;size=6;pointerEvents=1;points=[];fillColor=default;resizable=0;rotatable=0;perimeter=centerPerimeter;snapToPoint=1;strokeColor=#000000;" parent="1" vertex="1"><mxGeometry x="75" y="230" width="40" height="40" as="geometry"/></mxCell><mxCell id="hrj-naIFJMOV-cHhLQjX-14" value="" style="edgeStyle=orthogonalEdgeStyle;rounded=0;orthogonalLoop=1;jettySize=auto;html=1;fontSize=16;strokeColor=#000000;" parent="1" source="hrj-naIFJMOV-cHhLQjX-3" target="hrj-naIFJMOV-cHhLQjX-13" edge="1"><mxGeometry relative="1" as="geometry"/></mxCell><mxCell id="hrj-naIFJMOV-cHhLQjX-15" value="&lt;font style=&quot;font-size: 16px&quot;&gt;Use&lt;/font&gt;" style="edgeLabel;html=1;align=center;verticalAlign=middle;resizable=0;points=[];fontSize=13;" parent="hrj-naIFJMOV-cHhLQjX-14" vertex="1" connectable="0"><mxGeometry x="0.3647" y="2" relative="1" as="geometry"><mxPoint as="offset"/></mxGeometry></mxCell><mxCell id="hrj-naIFJMOV-cHhLQjX-3" value="AdminQueue" style="html=1;fontSize=16;" parent="1" vertex="1"><mxGeometry x="270" y="60" width="130" height="70" as="geometry"/></mxCell><mxCell id="hrj-naIFJMOV-cHhLQjX-10" value="Clockers" style="html=1;fontSize=13;" parent="1" vertex="1"><mxGeometry x="40" y="380" width="110" height="50" as="geometry"/></mxCell><mxCell id="hrj-naIFJMOV-cHhLQjX-16" style="edgeStyle=orthogonalEdgeStyle;rounded=0;orthogonalLoop=1;jettySize=auto;html=1;entryX=1;entryY=0.5;entryDx=0;entryDy=0;fontSize=13;strokeColor=#000000;" parent="1" source="hrj-naIFJMOV-cHhLQjX-13" target="hrj-naIFJMOV-cHhLQjX-10" edge="1"><mxGeometry relative="1" as="geometry"><Array as="points"><mxPoint x="505" y="405"/></Array></mxGeometry></mxCell><mxCell id="hrj-naIFJMOV-cHhLQjX-17" value="&lt;font style=&quot;font-size: 16px&quot;&gt;Need&lt;/font&gt;" style="edgeLabel;html=1;align=center;verticalAlign=middle;resizable=0;points=[];fontSize=13;" parent="hrj-naIFJMOV-cHhLQjX-16" vertex="1" connectable="0"><mxGeometry x="-0.2247" y="1" relative="1" as="geometry"><mxPoint x="33" y="-36" as="offset"/></mxGeometry></mxCell><mxCell id="hrj-naIFJMOV-cHhLQjX-13" value="&lt;span style=&quot;font-size: 13px;&quot;&gt;ClockersBuilder&lt;/span&gt;" style="html=1;fontSize=13;" parent="1" vertex="1"><mxGeometry x="450" y="160" width="110" height="50" as="geometry"/></mxCell></root></mxGraphModel></diagram><diagram id="MyoLWJ1nvOKlKCVq1eqS" name="Schema Clock Task javaFX"><mxGraphModel dx="2082" dy="528" grid="1" gridSize="10" guides="1" tooltips="1" connect="1" arrows="1" fold="1" page="1" pageScale="1" pageWidth="1100" pageHeight="1700" background="none" math="0" shadow="0"><root><mxCell id="KsSvXlNfJgSW6GUO9CBC-0"/><mxCell id="KsSvXlNfJgSW6GUO9CBC-1" parent="KsSvXlNfJgSW6GUO9CBC-0"/><mxCell id="KsSvXlNfJgSW6GUO9CBC-10" value="&lt;font style=&quot;font-size: 15px;&quot;&gt;Use&lt;/font&gt;" style="edgeStyle=orthogonalEdgeStyle;rounded=0;orthogonalLoop=1;jettySize=auto;html=1;fontColor=#FFFFFF;fontSize=15;" parent="KsSvXlNfJgSW6GUO9CBC-1" source="KsSvXlNfJgSW6GUO9CBC-6" target="KsSvXlNfJgSW6GUO9CBC-9" edge="1"><mxGeometry relative="1" as="geometry"/></mxCell><mxCell id="KsSvXlNfJgSW6GUO9CBC-17" value="Implements" style="edgeStyle=orthogonalEdgeStyle;rounded=0;orthogonalLoop=1;jettySize=auto;html=1;fontSize=15;fontColor=#FFFFFF;" parent="KsSvXlNfJgSW6GUO9CBC-1" source="KsSvXlNfJgSW6GUO9CBC-6" target="KsSvXlNfJgSW6GUO9CBC-16" edge="1"><mxGeometry relative="1" as="geometry"/></mxCell><mxCell id="KsSvXlNfJgSW6GUO9CBC-6" value="&lt;pre style=&quot;background-color: rgb(43, 43, 43); font-family: &amp;quot;jetbrains mono&amp;quot;, monospace; font-size: 15px;&quot;&gt;TimerTimelineFx&lt;/pre&gt;" style="html=1;fontColor=#FFFFFF;fontSize=15;" parent="KsSvXlNfJgSW6GUO9CBC-1" vertex="1"><mxGeometry x="-220" y="150" width="160" height="100" as="geometry"/></mxCell><mxCell id="M0Vppd1BT5os_kpLZVA5-1" value="Use" style="edgeStyle=orthogonalEdgeStyle;rounded=0;orthogonalLoop=1;jettySize=auto;html=1;fontSize=15;fontColor=#FFFFFF;" parent="KsSvXlNfJgSW6GUO9CBC-1" source="KsSvXlNfJgSW6GUO9CBC-9" target="M0Vppd1BT5os_kpLZVA5-0" edge="1"><mxGeometry relative="1" as="geometry"/></mxCell><mxCell id="KsSvXlNfJgSW6GUO9CBC-9" value="&lt;pre style=&quot;background-color: rgb(43, 43, 43); font-family: &amp;quot;jetbrains mono&amp;quot;, monospace; font-size: 15px;&quot;&gt;ClockTask&amp;lt;V&amp;gt;&lt;/pre&gt;" style="html=1;fontColor=#FFFFFF;fontSize=15;" parent="KsSvXlNfJgSW6GUO9CBC-1" vertex="1"><mxGeometry x="-220" y="330" width="160" height="100" as="geometry"/></mxCell><mxCell id="KsSvXlNfJgSW6GUO9CBC-15" value="Use" style="edgeStyle=orthogonalEdgeStyle;rounded=0;orthogonalLoop=1;jettySize=auto;html=1;fontSize=15;fontColor=#FFFFFF;entryX=1;entryY=0.5;entryDx=0;entryDy=0;" parent="KsSvXlNfJgSW6GUO9CBC-1" source="KsSvXlNfJgSW6GUO9CBC-12" target="KsSvXlNfJgSW6GUO9CBC-14" edge="1"><mxGeometry relative="1" as="geometry"/></mxCell><mxCell id="KsSvXlNfJgSW6GUO9CBC-24" value="Manage / Create" style="edgeStyle=orthogonalEdgeStyle;rounded=0;orthogonalLoop=1;jettySize=auto;html=1;fontSize=15;fontColor=#FFFFFF;" parent="KsSvXlNfJgSW6GUO9CBC-1" source="KsSvXlNfJgSW6GUO9CBC-12" target="KsSvXlNfJgSW6GUO9CBC-9" edge="1"><mxGeometry relative="1" as="geometry"/></mxCell><mxCell id="KsSvXlNfJgSW6GUO9CBC-12" value="&lt;pre style=&quot;background-color: rgb(43, 43, 43); font-family: &amp;quot;jetbrains mono&amp;quot;, monospace; font-size: 15px;&quot;&gt;TimerBuilder&lt;/pre&gt;" style="html=1;fontColor=#FFFFFF;fontSize=15;" parent="KsSvXlNfJgSW6GUO9CBC-1" vertex="1"><mxGeometry x="-220" y="510" width="160" height="100" as="geometry"/></mxCell><mxCell id="M0Vppd1BT5os_kpLZVA5-2" value="Use" style="edgeStyle=orthogonalEdgeStyle;rounded=0;orthogonalLoop=1;jettySize=auto;html=1;fontSize=15;fontColor=#FFFFFF;" parent="KsSvXlNfJgSW6GUO9CBC-1" source="KsSvXlNfJgSW6GUO9CBC-14" target="M0Vppd1BT5os_kpLZVA5-0" edge="1"><mxGeometry relative="1" as="geometry"/></mxCell><mxCell id="KsSvXlNfJgSW6GUO9CBC-14" value="&lt;pre style=&quot;background-color: rgb(43, 43, 43); font-family: &amp;quot;jetbrains mono&amp;quot;, monospace; font-size: 15px;&quot;&gt;TaskFXBuilder&lt;/pre&gt;" style="html=1;fontColor=#FFFFFF;fontSize=15;" parent="KsSvXlNfJgSW6GUO9CBC-1" vertex="1"><mxGeometry x="-490" y="510" width="160" height="100" as="geometry"/></mxCell><mxCell id="KsSvXlNfJgSW6GUO9CBC-16" value="&lt;pre style=&quot;background-color: rgb(43, 43, 43); font-family: &amp;quot;jetbrains mono&amp;quot;, monospace; font-size: 15px;&quot;&gt;&lt;pre style=&quot;font-family: &amp;quot;jetbrains mono&amp;quot;, monospace; font-size: 15px;&quot;&gt;TimerSchedule&lt;/pre&gt;&lt;/pre&gt;" style="html=1;fontColor=#FFFFFF;fontSize=15;" parent="KsSvXlNfJgSW6GUO9CBC-1" vertex="1"><mxGeometry x="70" y="150" width="160" height="100" as="geometry"/></mxCell><mxCell id="KsSvXlNfJgSW6GUO9CBC-20" value="Use" style="edgeStyle=orthogonalEdgeStyle;rounded=0;orthogonalLoop=1;jettySize=auto;html=1;fontSize=15;" parent="KsSvXlNfJgSW6GUO9CBC-1" source="KsSvXlNfJgSW6GUO9CBC-18" target="KsSvXlNfJgSW6GUO9CBC-16" edge="1"><mxGeometry relative="1" as="geometry"/></mxCell><mxCell id="KsSvXlNfJgSW6GUO9CBC-22" value="" style="edgeStyle=orthogonalEdgeStyle;rounded=0;orthogonalLoop=1;jettySize=auto;html=1;fontSize=15;" parent="KsSvXlNfJgSW6GUO9CBC-1" source="KsSvXlNfJgSW6GUO9CBC-18" target="KsSvXlNfJgSW6GUO9CBC-21" edge="1"><mxGeometry relative="1" as="geometry"/></mxCell><mxCell id="KsSvXlNfJgSW6GUO9CBC-23" value="Called by" style="edgeLabel;html=1;align=center;verticalAlign=middle;resizable=0;points=[];fontSize=15;" parent="KsSvXlNfJgSW6GUO9CBC-22" vertex="1" connectable="0"><mxGeometry x="-0.2417" y="1" relative="1" as="geometry"><mxPoint as="offset"/></mxGeometry></mxCell><mxCell id="KsSvXlNfJgSW6GUO9CBC-18" value="&lt;pre style=&quot;background-color: rgb(43, 43, 43); font-family: &amp;quot;jetbrains mono&amp;quot;, monospace; font-size: 15px;&quot;&gt;&lt;pre style=&quot;font-family: &amp;quot;jetbrains mono&amp;quot;, monospace; font-size: 15px;&quot;&gt;AdminQueue&lt;/pre&gt;&lt;/pre&gt;" style="html=1;fontColor=#FFFFFF;fontSize=15;" parent="KsSvXlNfJgSW6GUO9CBC-1" vertex="1"><mxGeometry x="310" y="150" width="160" height="100" as="geometry"/></mxCell><mxCell id="KsSvXlNfJgSW6GUO9CBC-21" value="Controller" style="html=1;" parent="KsSvXlNfJgSW6GUO9CBC-1" vertex="1"><mxGeometry x="500" y="20" width="160" height="100" as="geometry"/></mxCell><mxCell id="M0Vppd1BT5os_kpLZVA5-0" value="&lt;pre style=&quot;background-color: rgb(43, 43, 43); font-family: &amp;quot;jetbrains mono&amp;quot;, monospace; font-size: 15px;&quot;&gt;Task&amp;lt;V&amp;gt;&lt;/pre&gt;" style="html=1;fontColor=#FFFFFF;fontSize=15;" parent="KsSvXlNfJgSW6GUO9CBC-1" vertex="1"><mxGeometry x="-490" y="330" width="160" height="100" as="geometry"/></mxCell></root></mxGraphModel></diagram><diagram id="cN4yhxqBgprB87vfxOY0" name="Use Case - Clock Task JavaFX Thread"><mxGraphModel dx="982" dy="528" grid="1" gridSize="10" guides="1" tooltips="1" connect="1" arrows="1" fold="1" page="1" pageScale="1" pageWidth="1100" pageHeight="1700" math="0" shadow="0"><root><mxCell id="cyYt4MzdR30TmDWQbP_W-0"/><mxCell id="cyYt4MzdR30TmDWQbP_W-1" parent="cyYt4MzdR30TmDWQbP_W-0"/><mxCell id="cyYt4MzdR30TmDWQbP_W-2" value="Task javaFX&lt;br&gt;Use Case" style="ellipse;whiteSpace=wrap;html=1;fontSize=15;" parent="cyYt4MzdR30TmDWQbP_W-1" vertex="1"><mxGeometry x="355" width="140" height="70" as="geometry"/></mxCell></root></mxGraphModel></diagram></mxfile>